<svg width="75" height="68" viewBox="0 0 75 68" fill="none" xmlns="http://www.w3.org/2000/svg">
<path d="M8.63362 14.7231L1.56615 25.003C0.751807 26.1875 0.821945 27.7684 1.73796 28.8762L32.2984 65.8329C33.5852 67.3891 35.9706 67.3891 37.2575 65.8329L67.8179 28.8762C68.7339 27.7684 68.804 26.1875 67.9897 25.003L60.9222 14.7231C60.6556 14.3355 60.3075 14.011 59.9021 13.7726L47.5985 6.53511C47.1042 6.24425 46.541 6.09094 45.9673 6.09094H23.5886C23.0149 6.09094 22.4517 6.24425 21.9573 6.53511L9.65372 13.7726C9.24832 14.011 8.90019 14.3355 8.63362 14.7231Z" stroke="#063436" stroke-width="2"/>
<path d="M8.2334 14.939L22.7462 21.4698C23.784 21.9368 24.9092 22.1783 26.0472 22.1783H43.5077C44.6457 22.1783 45.7709 21.9368 46.8085 21.4698L61.3215 14.939" stroke="#063436" stroke-width="2"/>
<path d="M1.79883 27.0045L20.9268 37.3043C22.0988 37.9352 23.4091 38.2656 24.7403 38.2656H44.8153C46.1466 38.2656 47.4569 37.9352 48.6288 37.3043L67.7568 27.0045" stroke="#063436" stroke-width="2"/>
<path d="M24.3213 22.1782L22.7521 37.8698C22.7261 38.1298 22.7639 38.3921 22.862 38.6343L33.2872 64.3495C33.83 65.6886 35.7261 65.6886 36.2689 64.3495L46.6941 38.6343C46.7922 38.3921 46.83 38.1298 46.804 37.8698L45.2348 22.1782" stroke="#063436" stroke-width="2"/>
<g clip-path="url(#clip0_262_2606)">
<path d="M59.7337 3.58923L63.323 10.7678L70.5015 14.3571L63.323 17.9464L59.7337 25.1249L56.1444 17.9464L48.9658 14.3571L56.1444 10.7678L59.7337 3.58923Z" fill="url(#paint0_radial_262_2606)"/>
</g>
<defs>
<radialGradient id="paint0_radial_262_2606" cx="0" cy="0" r="1" gradientUnits="userSpaceOnUse" gradientTransform="translate(59.7337 14.3571) rotate(90) scale(10.7679)">
<stop stop-color="#F3FFB3"/>
<stop offset="1" stop-color="#C6E51B"/>
</radialGradient>
<clipPath id="clip0_262_2606">
<rect width="28.7143" height="28.7143" fill="white" transform="translate(45.377)"/>
</clipPath>
</defs>
</svg>
