<svg width="19" height="19" viewBox="0 0 19 19" fill="none" xmlns="http://www.w3.org/2000/svg">
<g clip-path="url(#clip0_262_2577)">
<path d="M7.91699 11.0833L16.6253 2.375" stroke="#063436" stroke-width="1.5" stroke-linecap="round" stroke-linejoin="round"/>
<path d="M16.6251 2.375L11.4793 16.625C11.4445 16.7008 11.3888 16.765 11.3186 16.8101C11.2484 16.8551 11.1668 16.879 11.0834 16.879C11.0001 16.879 10.9185 16.8551 10.8483 16.8101C10.7781 16.765 10.7224 16.7008 10.6876 16.625L7.91678 11.0833L2.37512 8.3125C2.29932 8.27777 2.23509 8.222 2.19006 8.15183C2.14503 8.08166 2.12109 8.00004 2.12109 7.91667C2.12109 7.83329 2.14503 7.75167 2.19006 7.6815C2.23509 7.61133 2.29932 7.55557 2.37512 7.52083L16.6251 2.375Z" stroke="#063436" stroke-width="1.5" stroke-linecap="round" stroke-linejoin="round"/>
</g>
<defs>
<clipPath id="clip0_262_2577">
<rect width="19" height="19" fill="white"/>
</clipPath>
</defs>
</svg>
