<svg width="16" height="16" viewBox="0 0 16 16" fill="none" xmlns="http://www.w3.org/2000/svg">
<g clip-path="url(#clip0_391_18)">
<g clip-path="url(#clip1_391_18)">
<path d="M2.52601 0.839844H5.89443L7.57864 5.05037L5.47338 6.31353C6.37524 8.14219 7.85524 9.62219 9.6839 10.5241L10.9471 8.41879L15.1576 10.103V13.4714C15.1576 13.9181 14.9801 14.3465 14.6643 14.6623C14.3484 14.9782 13.9201 15.1556 13.4734 15.1556C10.1885 14.956 7.09035 13.5611 4.76334 11.2341C2.43633 8.90708 1.04142 5.80888 0.841797 2.52405C0.841797 2.07737 1.01924 1.64899 1.33509 1.33314C1.65094 1.01729 2.07933 0.839844 2.52601 0.839844Z" stroke="white" stroke-width="1.5" stroke-linecap="round" stroke-linejoin="round"/>
</g>
</g>
<defs>
<clipPath id="clip0_391_18">
<rect width="16" height="16" fill="white"/>
</clipPath>
<clipPath id="clip1_391_18">
<rect width="20.2105" height="20.2105" fill="white" transform="translate(-1.68359 -2.52734)"/>
</clipPath>
</defs>
</svg>
