<svg width="63" height="55" viewBox="0 0 63 55" fill="none" xmlns="http://www.w3.org/2000/svg">
<path d="M1.17969 1.80374C1.17969 1.3607 1.50328 1 1.90074 1H30.3209C30.4827 1 30.6445 1.06273 30.7711 1.17643L39.7755 9.20602C39.9479 9.35893 40.0463 9.59025 40.0463 9.83333C40.0463 10.0764 39.9479 10.3077 39.7755 10.4606L30.7711 18.4902C30.6445 18.6039 30.4862 18.6667 30.3209 18.6667H1.90074C1.50328 18.6667 1.17969 18.306 1.17969 17.8629V1.80374Z" stroke="#9BC4C0" stroke-width="2" stroke-linecap="round" stroke-linejoin="round"/>
<path d="M1.17969 37.1373C1.17969 36.6941 1.52889 36.3333 1.9578 36.3333H50.7551C50.9335 36.3333 51.1043 36.3961 51.2409 36.5098L60.9541 44.5412C61.1401 44.6941 61.2463 44.9255 61.2463 45.1686C61.2463 45.4118 61.1401 45.6431 60.9541 45.7961L51.2409 53.8235C51.1043 53.9373 50.9335 54 50.7551 54H1.9578C1.52889 54 1.17969 53.6392 1.17969 53.1961V37.1373Z" stroke="#9BC4C0" stroke-width="2" stroke-linecap="round" stroke-linejoin="round"/>
<path d="M0 18.3998C0 17.8977 0.347293 17.4889 0.77386 17.4889H40.2105C40.3842 17.4889 40.5578 17.56 40.6937 17.6888L50.3538 26.789C50.535 26.9623 50.6444 27.2245 50.6444 27.5C50.6444 27.7755 50.5387 28.0377 50.3538 28.211L40.6937 37.3111C40.5578 37.44 40.3842 37.5111 40.2105 37.5111H0.77386C0.347293 37.5111 0 37.1023 0 36.6002V18.4042V18.3998Z" fill="url(#paint0_linear_186_4988)"/>
<path d="M25.2707 4.38642L24.1498 6.28075H25.2406L26.9068 4.55932L25.2707 4.38642ZM25.4437 9.70859C25.5866 9.70859 25.7371 9.70859 25.8687 9.71987V9.92659C25.8687 10.5242 25.4437 10.9602 24.7892 10.9602C24.4206 10.9602 24.2024 10.7648 24.2024 10.4039C24.2024 9.88149 24.6688 9.70859 25.4437 9.70859ZM25.2368 6.5401C23.721 6.5401 22.8183 7.23544 22.743 8.45698H24.2137C24.225 7.98716 24.541 7.72781 25.1503 7.72781C25.6957 7.72781 25.8687 7.94581 25.8687 8.34798V8.69753C25.7258 8.68626 25.5528 8.68626 25.4023 8.68626C23.3975 8.68626 22.5926 9.40415 22.5926 10.6558C22.5926 11.5691 23.2245 12.1818 24.2701 12.1818C25.1089 12.1818 25.5791 11.8773 25.8725 11.2872V12.0915H27.4522V8.34798C27.4522 7.31437 26.9407 6.5401 25.2406 6.5401M16.8829 6.6491L18.6921 12.0915H20.5765L22.4083 6.6491H20.8511L19.8581 9.77249C19.7716 10.0431 19.6964 10.5017 19.6625 10.7535C19.6399 10.5017 19.576 10.0469 19.4895 9.77249L18.5416 6.6491H16.8866H16.8829ZM14.0581 6.5401C12.531 6.5401 11.4854 7.57371 11.4854 9.35905C11.4854 11.1444 12.531 12.2005 14.0581 12.2005C15.5852 12.2005 16.6196 11.1557 16.6196 9.35905C16.6196 7.56244 15.5627 6.5401 14.0581 6.5401ZM14.0581 7.85936C14.7239 7.85936 15.0285 8.37053 15.0285 9.3628C15.0285 10.3551 14.7239 10.885 14.0581 10.885C13.3924 10.885 13.0689 10.3739 13.0689 9.3628C13.0689 8.35174 13.3736 7.85936 14.0581 7.85936ZM5.68164 6.6491V12.0915H7.2614V9.10722C7.2614 8.31416 7.67515 7.90823 8.24311 7.90823C8.76593 7.90823 8.92015 8.17885 8.92015 8.73512V12.0878H10.5112V8.39684C10.5112 7.2204 9.84543 6.53634 8.7885 6.53634C8.01367 6.53634 7.55854 6.86334 7.2614 7.37451V6.64534H5.68164V6.6491Z" fill="white"/>
<path d="M33.6233 22.7547L32.5024 24.649H33.5932L35.2595 22.9276L33.6271 22.7547H33.6233ZM33.7963 28.0769C33.9393 28.0769 34.0897 28.0769 34.2214 28.0881V28.2949C34.2214 28.8925 33.7963 29.3285 33.1419 29.3285C32.7733 29.3285 32.5551 29.133 32.5551 28.7722C32.5551 28.2498 33.0215 28.0769 33.7963 28.0769ZM33.5895 24.9084C32.0774 24.9084 31.1709 25.6037 31.0957 26.8253H32.5664C32.5777 26.3554 32.8936 26.0961 33.5029 26.0961C34.0483 26.0961 34.2214 26.3141 34.2214 26.7163V27.0658C34.0784 27.0545 33.9054 27.0545 33.7512 27.0545C31.7464 27.0545 30.9415 27.7724 30.9415 29.024C30.9415 29.9374 31.5734 30.5463 32.619 30.5463C33.4578 30.5463 33.928 30.2418 34.2214 29.6517V30.4561H35.8011V26.7125C35.8011 25.6789 35.2896 24.9046 33.5895 24.9046M25.0926 25.0174V30.4598H26.6724V27.4755C26.6724 26.6824 27.0861 26.2765 27.6541 26.2765C28.1769 26.2765 28.3311 26.5471 28.3311 27.1034V30.4561H29.9222V26.7651C29.9222 25.5887 29.2564 24.9046 28.1995 24.9046C27.4246 24.9046 26.9695 25.2316 26.6724 25.7428V25.0136H25.0926V25.0174ZM21.6284 26.0961C22.2152 26.0961 22.4785 26.4983 22.5011 27.0545H20.6166C20.737 26.3893 21.0417 26.0961 21.6284 26.0961ZM21.6811 24.9084C20.0261 24.9084 19.003 26.0397 19.003 27.7273C19.003 29.4149 20.0148 30.5688 21.6284 30.5688C22.9374 30.5688 23.9605 29.7307 24.0244 28.6331H22.4559C22.4221 29.0353 22.0873 29.2871 21.6059 29.2871C20.9288 29.2871 20.6354 28.9376 20.5828 28.122H24.1034C24.235 26.4795 23.5166 24.9121 21.6848 24.9121M18.01 22.8411H16.4303V30.4636H18.01V22.8411ZM12.9661 26.0961C13.5566 26.0961 13.8161 26.4983 13.8387 27.0545H11.9543C12.0746 26.3893 12.3793 26.0961 12.9661 26.0961ZM13.0187 24.9084C11.3638 24.9084 10.3407 26.0397 10.3407 27.7273C10.3407 29.4149 11.3525 30.5688 12.9661 30.5688C14.275 30.5688 15.2981 29.7307 15.3621 28.6331H13.7936C13.7597 29.0353 13.4212 29.2871 12.9435 29.2871C12.2665 29.2871 11.9731 28.9376 11.9204 28.122H15.441C15.5727 26.4795 14.8505 24.9121 13.0225 24.9121M9.73886 30.4636V29.2458H7.1473L9.69749 26.2314V25.0249H5.44718V26.2314H7.85443L5.29297 29.2458V30.4636H9.73886Z" fill="#063436"/>
<path d="M38.9167 42.7843V48.2268H40.4965V45.2988C40.4965 44.4268 40.9215 44.0472 41.4556 44.0472C41.9446 44.0472 42.0988 44.3404 42.0988 44.9079V48.2268H43.6786V45.265C43.6899 44.4155 44.1149 44.0434 44.6377 44.0434C45.1267 44.0434 45.2809 44.3366 45.2809 44.9042V48.223H46.8607V44.5321C46.8607 43.3556 46.2626 42.6715 45.2245 42.6715C44.5399 42.6715 43.8854 42.9422 43.4717 43.7578C43.2987 43.1376 42.8172 42.6715 42.0875 42.6715C41.3578 42.6715 40.8124 42.9873 40.4965 43.5623V42.7805H38.9167V42.7843ZM35.4112 40.5179L34.2903 42.4122H35.3773L37.0436 40.6908L35.4112 40.5179ZM35.5842 45.8438C35.7271 45.8438 35.8776 45.8438 36.0092 45.8551V46.0618C36.0092 46.6594 35.5842 47.0954 34.9297 47.0954C34.5611 47.0954 34.3429 46.9 34.3429 46.5391C34.3429 46.0167 34.8131 45.8438 35.5842 45.8438ZM35.3773 42.6753C33.8653 42.6753 32.9588 43.3706 32.8835 44.5922H34.3542C34.3655 44.1224 34.6815 43.863 35.2908 43.863C35.8362 43.863 36.0092 44.081 36.0092 44.4832V44.8327C35.8663 44.8215 35.6933 44.8215 35.539 44.8215C33.5343 44.8215 32.7293 45.5394 32.7293 46.791C32.7293 47.7043 33.3612 48.317 34.4069 48.317C35.2457 48.317 35.7158 48.0125 36.0092 47.4224V48.2305H37.589V44.4869C37.589 43.4533 37.0774 42.6791 35.3773 42.6791M29.3291 42.7843V48.2268H30.9088V45.701C30.9088 44.6335 31.5295 44.1562 32.2291 44.1562C32.3833 44.1562 32.5225 44.1787 32.5789 44.1975V42.6753C31.5445 42.6753 31.1082 43.1451 30.9126 43.8818V42.7805H29.3329L29.3291 42.7843ZM25.7784 42.6753C24.2551 42.6753 23.2094 43.7089 23.2094 45.4943C23.2094 47.2796 24.2551 48.3358 25.7784 48.3358C27.3017 48.3358 28.3399 47.2909 28.3399 45.4943C28.3399 43.6976 27.2829 42.6753 25.7784 42.6753ZM25.7784 43.9908C26.4442 43.9908 26.7488 44.502 26.7488 45.4943C26.7488 46.4865 26.4442 47.0202 25.7784 47.0202C25.1126 47.0202 24.7854 46.5091 24.7854 45.4943C24.7854 44.4794 25.0901 43.9908 25.7784 43.9908ZM19.907 44.0134C20.6028 44.0134 20.8999 44.5358 20.8999 45.5055C20.8999 46.4752 20.6066 46.9977 19.907 46.9977C19.1321 46.9977 18.8162 46.355 18.8162 45.5281C18.8162 44.5584 19.1848 44.0134 19.907 44.0134ZM20.3433 42.6753C19.5684 42.6753 19.102 43.1113 18.8162 43.6864V42.7843H17.2364V50.5233H18.8162V47.3322C19.0983 47.8998 19.591 48.332 20.3433 48.332C21.6522 48.332 22.5324 47.2007 22.5324 45.5018C22.5324 43.8029 21.6485 42.6715 20.3433 42.6715M13.9039 42.6753C12.4783 42.6753 11.617 43.4796 11.617 44.4606C11.617 45.8664 12.7943 46.028 13.9829 46.1595C14.4643 46.2159 14.8104 46.3024 14.8104 46.682C14.8104 46.9451 14.6373 47.1743 13.949 47.1743C13.3397 47.1743 13.0124 46.9112 13.0012 46.5316H11.5192C11.5643 47.5765 12.3241 48.3395 13.9039 48.3395C15.6792 48.3395 16.345 47.5464 16.345 46.4865C16.345 45.1146 15.036 44.9192 14.0017 44.8215C13.5014 44.7576 13.1516 44.6561 13.1516 44.3216C13.1516 44.0585 13.3359 43.8217 13.9565 43.8217C14.4794 43.8217 14.8066 44.0848 14.8179 44.4644H16.2886C16.2472 43.4308 15.4836 42.6791 13.9039 42.6791M8.18289 40.5179L7.06201 42.4122H8.1528L9.81907 40.6908L8.18665 40.5179H8.18289ZM5.65527 42.7843V46.4752C5.65527 47.6517 6.32103 48.3358 7.37796 48.3358C8.1528 48.3358 8.59663 48.0088 8.89378 47.4976V48.2268H10.4735V42.7843H8.89378V45.7686C8.89378 46.5617 8.48003 46.9676 7.91207 46.9676C7.40053 46.9676 7.24632 46.697 7.24632 46.1407V42.7881H5.65527V42.7843Z" fill="white"/>
<defs>
<linearGradient id="paint0_linear_186_4988" x1="0" y1="46.5059" x2="50.6444" y2="46.5059" gradientUnits="userSpaceOnUse">
<stop stop-color="#C6E51B"/>
<stop offset="1" stop-color="#F3FFB3"/>
</linearGradient>
</defs>
</svg>
