<svg xmlns="http://www.w3.org/2000/svg" version="1.1" xmlns:xlink="http://www.w3.org/1999/xlink" xmlns:svgjs="http://svgjs.dev/svgjs" width="1000" height="1000"><g clip-path="url(#SvgjsClipPath1029)"><rect width="1000" height="1000" fill="#ffffff"></rect><g transform="matrix(9.090909090909092,0,0,9.090909090909092,149.99999999999994,318.18181818181813)"><svg xmlns="http://www.w3.org/2000/svg" version="1.1" xmlns:xlink="http://www.w3.org/1999/xlink" xmlns:svgjs="http://svgjs.dev/svgjs" width="77" height="40"><svg width="77" height="40" viewBox="0 0 77 40" fill="none" xmlns="http://www.w3.org/2000/svg">
<path d="M19.7051 36.6116C10.6328 36.5918 3.29687 29.163 3.2832 19.9818C3.29687 10.7927 10.6328 3.36986 19.7051 3.3481C28.7715 3.36986 36.1094 10.7927 36.127 19.9818C36.1094 29.163 28.7715 36.5918 19.7051 36.6116ZM50.4688 21.574H76.5762V19.9818C76.5742 8.96123 67.7559 0.03125 56.877 0.03125C48.2832 0.03125 40.9824 5.60087 38.2891 13.3619C35.5938 5.60087 28.2949 0.03125 19.7051 0.03125C8.82227 0.03125 0.00195312 8.96123 0 19.9818C0.00195312 31.0004 8.82227 39.9244 19.7051 39.9304C28.2949 39.9304 35.5918 34.3588 38.2891 26.5938C40.9824 34.3588 48.2832 39.9304 56.877 39.9304V36.6116C47.8047 36.5918 40.4707 29.163 40.4531 19.9818C40.4707 10.7927 47.8047 3.36986 56.877 3.3481C65.4121 3.3659 72.4121 9.9462 73.2168 18.3877H50.4688V21.574Z" fill="#063436"></path>
<path d="M23.6855 19.7919C23.6855 20.943 24.6133 21.8864 25.7559 21.8864C26.8984 21.8864 27.8242 20.943 27.8242 19.7919C27.8242 18.6329 26.8984 17.6914 25.7559 17.6914C24.6133 17.6914 23.6855 18.6329 23.6855 19.7919Z" fill="#063436"></path>
<path d="M11.4609 19.7919C11.4609 20.943 12.3887 21.8864 13.5312 21.8864C14.6758 21.8864 15.5977 20.943 15.5977 19.7919C15.5977 18.6329 14.6758 17.6914 13.5312 17.6914C12.3887 17.6914 11.4609 18.6329 11.4609 19.7919Z" fill="#063436"></path>
</svg></svg></g></g><defs><clipPath id="SvgjsClipPath1029"><rect width="1000" height="1000" x="0" y="0" rx="350" ry="350"></rect></clipPath></defs></svg>